<svg version="1.0" xmlns="http://www.w3.org/2000/svg"
 width="66.000000pt" height="81.000000pt" viewBox="0 0 66.000000 81.000000"
 preserveAspectRatio="xMidYMid meet">
<metadata>
Created by potrace 1.15, written by Peter Selinger 2001-2017
</metadata>
<g transform="translate(0.000000,81.000000) scale(0.100000,-0.100000)"
fill="#000000" stroke="none">
<path d="M97 635 c-4 -9 6 -24 25 -38 28 -23 30 -26 16 -45 -8 -12 -26 -31
-41 -42 -15 -12 -27 -28 -27 -36 0 -27 41 -14 82 25 22 22 47 37 54 34 24 -9
16 -63 -18 -121 -33 -58 -35 -75 -27 -217 3 -53 -1 -79 -14 -104 -22 -44 -22
-61 1 -61 44 0 74 129 57 241 -6 37 -3 54 15 90 13 24 26 46 29 49 4 3 13 20
20 38 20 47 -5 95 -78 155 -61 49 -85 57 -94 32z"/>
<path d="M314 615 c-12 -30 7 -35 132 -35 105 0 126 3 131 16 10 27 -17 34
-140 34 -94 0 -119 -3 -123 -15z"/>
<path d="M372 533 c-28 -6 -62 -58 -62 -95 0 -73 37 -98 145 -98 88 0 115 22
115 95 0 80 -20 99 -106 101 -38 1 -79 0 -92 -3z m48 -58 c0 -10 -10 -15 -30
-15 -20 0 -30 5 -30 15 0 10 10 15 30 15 20 0 30 -5 30 -15z m90 5 c0 -5 -11
-10 -25 -10 -14 0 -25 5 -25 10 0 6 11 10 25 10 14 0 25 -4 25 -10z m-92 -73
c3 -15 -2 -18 -25 -15 -17 2 -29 10 -31 21 -3 15 2 18 25 15 17 -2 29 -10 31
-21z m105 16 c12 -11 -14 -33 -39 -33 -17 0 -24 6 -24 20 0 15 7 20 28 20 16
0 32 -3 35 -7z"/>
<path d="M293 303 c-7 -2 -13 -13 -13 -24 0 -18 9 -19 145 -19 124 0 147 2
152 16 3 9 0 20 -8 25 -15 9 -255 11 -276 2z"/>
<path d="M355 224 c-33 -9 -45 -35 -45 -95 0 -81 14 -89 147 -89 99 0 103 1
119 25 20 30 14 120 -10 143 -15 15 -171 26 -211 16z m75 -59 c0 -10 -11 -15
-35 -15 -24 0 -35 5 -35 15 0 10 11 15 35 15 24 0 35 -5 35 -15z m98 3 c-3 -7
-15 -13 -28 -13 -13 0 -25 6 -27 13 -3 8 6 12 27 12 21 0 30 -4 28 -12z m-98
-62 c0 -21 -17 -29 -46 -22 -38 10 -30 36 11 36 24 0 35 -5 35 -14z m98 2 c-7
-20 -58 -23 -58 -4 0 11 10 16 31 16 20 0 29 -4 27 -12z"/>
</g>
</svg>
