<svg version="1.0" xmlns="http://www.w3.org/2000/svg"
 width="70.000000pt" height="86.000000pt" viewBox="0 0 70.000000 86.000000"
 preserveAspectRatio="xMidYMid meet">
<metadata>
Created by potrace 1.15, written by Peter Selinger 2001-2017
</metadata>
<g transform="translate(0.000000,86.000000) scale(0.100000,-0.100000)"
fill="#000000" stroke="none">
<path d="M106 681 c-4 -6 5 -28 19 -50 32 -51 31 -57 -5 -88 -32 -26 -40 -53
-15 -53 8 0 23 9 34 21 19 21 41 19 41 -4 0 -7 -14 -39 -30 -72 -35 -72 -36
-78 -9 -156 38 -110 23 -154 -76 -226 -22 -16 -27 -25 -19 -33 14 -14 80 25
114 67 52 66 58 127 24 227 -20 57 -17 77 17 124 42 58 36 104 -26 187 -48 63
-59 73 -69 56z"/>
<path d="M320 670 c-29 -19 11 -30 112 -30 98 0 131 12 83 30 -34 13 -175 13
-195 0z"/>
<path d="M339 589 c-31 -11 -49 -46 -49 -94 0 -69 62 -96 172 -76 74 13 88 27
88 93 0 44 -3 50 -32 68 -36 22 -131 26 -179 9z m61 -49 c0 -16 -7 -20 -35
-20 -37 0 -43 8 -23 28 20 20 58 15 58 -8z m99 7 c14 -18 4 -27 -31 -27 -21 0
-28 5 -28 20 0 24 41 28 59 7z m-99 -77 c0 -13 -7 -20 -18 -20 -11 0 -27 9
-37 20 -18 20 -17 20 18 20 30 0 37 -4 37 -20z m100 12 c0 -14 -23 -32 -42
-32 -11 0 -18 7 -18 20 0 16 7 20 30 20 17 0 30 -4 30 -8z"/>
<path d="M254 377 c-8 -5 -12 -12 -9 -18 8 -13 332 -12 340 1 3 6 0 12 -7 15
-24 8 -309 10 -324 2z"/>
<path d="M333 300 c-30 -18 -33 -25 -33 -66 0 -59 12 -80 56 -94 45 -15 159
-6 191 15 24 16 39 71 29 107 -8 36 -43 50 -130 54 -68 4 -86 1 -113 -16z m85
-37 c2 -9 -9 -13 -37 -13 -46 0 -52 6 -18 20 28 11 49 9 55 -7z m97 7 c11 -18
-3 -27 -35 -22 -39 6 -40 32 -1 32 17 0 33 -4 36 -10z m-97 -77 c-4 -22 -44
-29 -64 -13 -24 21 -16 30 27 30 33 0 40 -3 37 -17z m100 0 c-2 -11 -14 -19
-31 -21 -22 -3 -27 1 -27 17 0 17 6 21 31 21 24 0 30 -4 27 -17z"/>
<path d="M240 70 c0 -15 11 -20 63 -25 101 -10 340 -2 344 12 6 18 -23 21
-224 26 -172 5 -183 4 -183 -13z"/>
</g>
</svg>
