<svg version="1.0" xmlns="http://www.w3.org/2000/svg"
 width="67.000000pt" height="86.000000pt" viewBox="0 0 67.000000 86.000000"
 preserveAspectRatio="xMidYMid meet">
<metadata>
Created by potrace 1.15, written by Peter Selinger 2001-2017
</metadata>
<g transform="translate(0.000000,86.000000) scale(0.100000,-0.100000)"
fill="#000000" stroke="none">
<path d="M105 690 c-4 -6 7 -23 24 -39 17 -16 31 -37 31 -46 0 -10 -16 -39
-35 -65 -35 -48 -43 -70 -26 -70 5 0 16 6 23 13 7 7 25 20 41 30 25 16 28 16
34 1 3 -9 -4 -44 -17 -78 -26 -66 -27 -84 -15 -226 7 -88 6 -99 -14 -139 -27
-53 -20 -64 18 -27 45 43 55 95 42 220 -12 104 -11 107 15 168 37 88 39 109
16 155 -28 54 -123 126 -137 103z"/>
<path d="M340 691 c-119 -16 17 -46 158 -36 57 5 82 11 82 20 0 7 -7 16 -16
19 -19 7 -161 5 -224 -3z"/>
<path d="M335 605 c-29 -28 -34 -89 -11 -121 13 -16 27 -19 111 -19 112 0 125
9 125 81 0 64 -31 84 -127 84 -65 0 -77 -3 -98 -25z m83 -27 c-3 -7 -15 -13
-28 -13 -13 0 -25 6 -27 13 -3 8 6 12 27 12 21 0 30 -4 28 -12z m90 -5 c2 -8
-6 -13 -22 -13 -17 0 -26 5 -26 16 0 19 41 16 48 -3z m-88 -59 c0 -11 -8 -14
-32 -12 -46 4 -49 28 -4 28 26 0 36 -4 36 -16z m80 7 c0 -5 -7 -12 -16 -15
-22 -9 -24 -8 -24 9 0 8 9 15 20 15 11 0 20 -4 20 -9z"/>
<path d="M325 430 c-14 -23 11 -30 103 -30 98 0 130 8 118 29 -9 14 -212 15
-221 1z"/>
<path d="M293 373 c-7 -2 -13 -12 -13 -20 0 -13 20 -15 144 -11 144 3 164 7
151 27 -6 11 -257 15 -282 4z"/>
<path d="M349 281 c-33 -34 -39 -83 -14 -131 19 -36 45 -44 132 -38 57 4 69 8
90 33 22 24 24 36 20 79 -6 71 -28 86 -124 86 -69 0 -77 -2 -104 -29z m79 -28
c-4 -23 -58 -31 -58 -9 0 15 14 24 43 25 12 1 17 -5 15 -16z m76 11 c26 -10
18 -24 -14 -24 -20 0 -30 5 -30 15 0 16 17 19 44 9z m6 -89 c-28 -29 -50 -32
-50 -7 0 26 9 32 43 32 30 0 30 0 7 -25z m-80 -5 c0 -24 -41 -28 -59 -7 -14
18 -4 27 31 27 21 0 28 -5 28 -20z"/>
<path d="M260 66 c0 -20 24 -24 165 -25 123 -2 201 11 190 30 -4 5 -85 9 -181
9 -141 0 -174 -3 -174 -14z"/>
</g>
</svg>
