<svg version="1.0" xmlns="http://www.w3.org/2000/svg"
 width="70.000000pt" height="81.000000pt" viewBox="0 0 70.000000 81.000000"
 preserveAspectRatio="xMidYMid meet">
<metadata>
Created by potrace 1.15, written by Peter Selinger 2001-2017
</metadata>
<g transform="translate(0.000000,81.000000) scale(0.100000,-0.100000)"
fill="#000000" stroke="none">
<path d="M138 673 c-24 -6 -23 -19 1 -26 10 -2 27 -17 36 -31 18 -27 18 -27
-14 -59 -50 -53 -37 -77 19 -35 16 12 32 19 35 16 4 -3 -4 -38 -16 -78 -19
-63 -20 -77 -9 -110 18 -55 6 -99 -41 -150 -61 -66 -91 -108 -85 -119 10 -15
40 0 71 37 30 36 40 35 49 -5 13 -55 29 -83 47 -83 23 0 35 36 18 56 -7 9 -18
41 -24 72 -11 51 -10 61 8 95 10 20 24 40 31 45 6 4 85 9 176 12 138 4 165 7
165 20 0 13 -29 16 -184 20 -185 5 -185 5 -192 33 -8 31 -6 41 22 104 26 58
24 78 -11 134 -26 39 -57 62 -80 58 -3 -1 -13 -3 -22 -6z"/>
<path d="M334 643 c-8 -8 -14 -19 -14 -24 0 -5 61 -9 140 -9 120 0 142 2 147
16 10 27 -17 33 -140 32 -88 -1 -122 -5 -133 -15z"/>
<path d="M375 563 c-30 -7 -45 -33 -45 -79 0 -27 7 -51 21 -68 20 -25 24 -26
123 -26 66 0 106 4 114 12 7 7 12 39 12 73 0 86 -12 95 -121 94 -46 -1 -93 -3
-104 -6z m65 -48 c0 -10 -10 -15 -30 -15 -29 0 -38 9 -23 23 13 13 53 7 53 -8z
m108 -2 c2 -9 -7 -13 -27 -13 -21 0 -31 5 -31 16 0 19 51 16 58 -3z m-98 -62
c0 -16 -20 -23 -46 -17 -36 9 -29 26 11 26 19 0 35 -4 35 -9z m98 -3 c-7 -20
-58 -23 -58 -4 0 11 10 16 31 16 20 0 29 -4 27 -12z"/>
<path d="M396 280 c-49 -9 -66 -32 -66 -87 0 -73 42 -99 150 -91 83 6 110 32
110 104 0 43 -4 56 -22 68 -24 17 -102 20 -172 6z m142 -52 c3 -14 -3 -18 -27
-18 -29 0 -41 17 -24 34 13 13 48 1 51 -16z m-98 -3 c0 -10 -11 -15 -35 -15
-24 0 -35 5 -35 15 0 10 11 15 35 15 24 0 35 -5 35 -15z m0 -65 c0 -22 -12
-25 -41 -10 -28 16 -23 30 11 30 23 0 30 -4 30 -20z m88 -2 c-7 -20 -48 -23
-48 -4 0 11 9 16 26 16 16 0 24 -5 22 -12z"/>
<path d="M317 73 c-10 -3 -17 -12 -15 -21 3 -15 22 -17 158 -17 139 0 155 2
158 18 3 15 -8 17 -120 17 -68 0 -132 2 -143 4 -11 2 -28 2 -38 -1z"/>
</g>
</svg>
