<svg version="1.0" xmlns="http://www.w3.org/2000/svg"
 width="71.000000pt" height="85.000000pt" viewBox="0 0 71.000000 85.000000"
 preserveAspectRatio="xMidYMid meet">
<metadata>
Created by potrace 1.15, written by Peter Selinger 2001-2017
</metadata>
<g transform="translate(0.000000,85.000000) scale(0.100000,-0.100000)"
fill="#000000" stroke="none">
<path d="M274 695 c-4 -8 -4 -22 0 -30 5 -13 28 -15 148 -13 131 3 143 5 146
22 2 10 -2 22 -10 27 -7 5 -73 9 -146 9 -109 0 -134 -3 -138 -15z"/>
<path d="M59 664 c-11 -14 -10 -18 5 -30 11 -8 30 -11 43 -8 12 4 30 4 38 0
12 -4 11 -11 -8 -38 -35 -53 -60 -115 -53 -134 5 -13 14 -15 41 -11 42 7 44
-1 14 -75 -41 -102 -66 -307 -39 -323 24 -15 39 18 43 93 5 96 46 264 67 277
14 9 12 59 -2 73 -7 7 -20 12 -30 12 -23 0 -23 1 12 57 35 55 39 98 11 113
-32 16 -126 13 -142 -6z"/>
<path d="M343 609 c-26 -7 -35 -17 -44 -48 -17 -57 -4 -125 26 -141 28 -15
183 -9 228 9 26 10 27 14 27 78 0 38 -4 74 -9 81 -18 28 -158 41 -228 21z m62
-59 c0 -10 -12 -16 -32 -18 -32 -3 -45 13 -26 32 13 12 58 2 58 -14z m109 5
c4 -12 -3 -15 -29 -15 -24 0 -35 5 -35 15 0 10 10 15 29 15 16 0 31 -6 35 -15z
m-109 -75 c0 -10 -12 -16 -32 -18 -28 -3 -33 0 -33 18 0 18 5 21 33 18 20 -2
32 -8 32 -18z m108 13 c10 -10 -13 -33 -34 -33 -21 0 -33 15 -24 30 7 11 48
14 58 3z"/>
<path d="M355 393 c-65 -4 -86 -16 -67 -35 14 -14 291 -12 306 2 5 6 4 15 -4
25 -13 15 -75 17 -235 8z"/>
<path d="M193 337 c3 -7 -1 -24 -9 -38 -16 -28 -19 -99 -4 -99 6 0 10 -30 10
-69 0 -74 13 -98 36 -66 9 12 11 33 7 61 -4 31 -1 50 11 68 20 31 20 75 1 100
-8 11 -15 28 -15 38 0 12 -7 18 -21 18 -13 0 -19 -5 -16 -13z"/>
<path d="M333 310 c-31 -13 -43 -41 -43 -99 0 -38 5 -56 21 -72 19 -19 30 -20
129 -17 140 4 155 15 147 102 -8 83 -17 90 -135 93 -53 2 -107 -1 -119 -7z
m75 -57 c2 -9 -8 -13 -32 -13 -34 0 -44 8 -29 24 11 11 56 2 61 -11z m120 0
c2 -9 -9 -13 -37 -13 -30 0 -41 4 -41 16 0 11 9 14 37 12 20 -2 38 -9 41 -15z
m-3 -63 c0 -10 -12 -16 -37 -18 -40 -3 -41 -3 -32 23 8 21 69 17 69 -5z m-115
-5 c0 -11 -11 -15 -40 -15 -29 0 -40 4 -40 15 0 11 11 15 40 15 29 0 40 -4 40
-15z"/>
<path d="M320 91 c-30 -8 -38 -37 -13 -45 10 -3 79 -2 153 2 126 7 135 8 135
27 0 19 -7 20 -125 22 -69 1 -136 -2 -150 -6z"/>
</g>
</svg>
