<svg version="1.0" xmlns="http://www.w3.org/2000/svg"
 width="69.000000pt" height="85.000000pt" viewBox="0 0 69.000000 85.000000"
 preserveAspectRatio="xMidYMid meet">
<metadata>
Created by potrace 1.15, written by Peter Selinger 2001-2017
</metadata>
<g transform="translate(0.000000,85.000000) scale(0.100000,-0.100000)"
fill="#000000" stroke="none">
<path d="M170 740 c0 -6 7 -13 15 -16 28 -11 16 -43 -25 -69 -72 -46 -67 -82
6 -46 49 25 74 19 36 -8 -64 -45 -92 -74 -92 -97 0 -25 25 -44 58 -44 18 0 32
-18 32 -41 0 -5 -13 -20 -29 -34 -15 -14 -34 -45 -41 -68 -8 -23 -17 -47 -22
-53 -5 -6 -2 -27 7 -47 19 -45 19 -68 1 -135 -15 -60 -8 -71 23 -38 17 18 24
41 28 88 3 34 12 73 19 86 11 16 12 27 4 41 -19 37 -11 69 30 116 45 52 47 61
24 94 -12 16 -23 21 -39 17 -24 -6 -51 16 -41 33 4 6 22 13 42 17 39 7 74 45
74 80 0 38 -30 102 -55 118 -28 18 -55 21 -55 6z"/>
<path d="M391 729 c-39 -16 -83 -51 -74 -60 4 -4 27 -2 50 6 39 14 112 9 173
-10 22 -7 34 9 17 23 -14 12 -118 52 -132 51 -5 0 -21 -5 -34 -10z"/>
<path d="M343 646 c-40 -18 -43 -47 -7 -71 19 -12 23 -20 15 -28 -17 -17 -13
-45 8 -57 22 -11 102 -12 141 -1 27 8 38 37 21 54 -8 8 -15 5 -27 -11 -17 -25
-54 -30 -54 -8 0 8 5 18 11 21 6 4 8 22 4 46 -6 34 -4 39 12 39 27 0 45 -20
32 -36 -19 -23 12 -28 34 -5 21 21 21 21 -1 43 -28 28 -139 36 -189 14z m63
-81 c1 -47 -2 -55 -17 -55 -23 0 -35 20 -19 30 11 7 10 14 -4 34 -20 31 -14
46 17 46 21 0 23 -5 23 -55z"/>
<path d="M318 463 c-16 -2 -28 -9 -28 -14 0 -10 170 -12 219 -3 62 13 29 24
-66 23 -54 -1 -110 -4 -125 -6z"/>
<path d="M320 403 c-39 -35 -36 -63 7 -63 21 0 24 3 15 12 -18 18 -15 25 12
32 13 3 31 9 40 12 12 5 16 -1 16 -24 0 -35 -12 -47 -65 -64 -130 -44 2 -123
138 -83 58 17 72 36 45 63 -18 18 -38 14 -38 -7 0 -12 -9 -20 -25 -23 -28 -6
-31 3 -13 32 10 16 10 24 0 40 -6 11 -12 31 -12 45 0 23 2 24 28 13 37 -16 38
-18 22 -28 -8 -5 -11 -12 -7 -16 11 -11 59 14 55 29 -7 20 -74 48 -131 54 -49
5 -57 3 -87 -24z m88 -126 c4 -21 -20 -31 -53 -23 -28 7 -25 23 9 36 27 11 40
7 44 -13z"/>
<path d="M270 191 c0 -13 26 -21 65 -21 38 0 52 -14 35 -35 -6 -8 -9 -23 -6
-33 6 -17 0 -20 -46 -25 -29 -4 -68 -7 -85 -7 -35 0 -44 -14 -17 -24 21 -8
283 -8 323 0 41 9 29 24 -18 24 -21 0 -53 3 -70 6 -24 5 -29 9 -20 20 7 9 6
19 -6 37 -14 23 -14 25 0 31 9 3 37 6 61 6 51 0 59 15 13 24 -48 9 -229 7
-229 -3z"/>
</g>
</svg>
