<svg version="1.0" xmlns="http://www.w3.org/2000/svg"
 width="71.000000pt" height="110.000000pt" viewBox="0 0 71.000000 110.000000"
 preserveAspectRatio="xMidYMid meet">
<metadata>
Created by potrace 1.15, written by Peter Selinger 2001-2017
</metadata>
<g transform="translate(0.000000,110.000000) scale(0.100000,-0.100000)"
fill="#000000" stroke="none">
<path d="M215 971 c-3 -10 -4 -25 -3 -32 2 -10 -19 -16 -79 -23 -71 -7 -83
-11 -83 -27 0 -17 9 -19 81 -19 80 0 80 0 77 -27 -3 -25 -8 -28 -43 -31 -79
-5 -110 -43 -101 -121 6 -49 12 -61 32 -61 8 0 14 -4 14 -10 0 -5 20 -10 44
-10 52 0 56 -6 56 -98 0 -51 -3 -63 -12 -54 -7 7 -22 12 -34 12 -16 0 -23 7
-26 29 -2 17 0 37 4 46 11 19 -16 49 -37 41 -11 -4 -15 -21 -15 -61 0 -53 -1
-57 -31 -67 -38 -13 -36 -42 4 -46 27 -3 27 -5 27 -72 0 -69 0 -69 -43 -72
-34 -2 -42 -7 -42 -23 0 -18 7 -20 80 -20 44 -1 86 1 93 3 20 7 14 42 -10 51
-19 7 -22 16 -24 68 -1 60 -1 60 34 76 35 16 35 16 30 -181 -3 -108 -9 -205
-13 -214 -5 -14 -2 -18 13 -18 32 0 41 78 42 382 1 132 -2 214 -9 227 -12 21
-56 45 -104 55 -20 5 -27 12 -27 30 0 31 14 41 80 56 30 7 60 20 67 29 18 23
17 169 -1 187 -20 19 -33 18 -41 -5z"/>
<path d="M323 923 c-7 -2 -13 -11 -13 -19 0 -11 19 -14 88 -14 48 0 130 -1
182 -3 89 -2 95 -1 95 18 0 19 -7 20 -170 22 -93 1 -176 -1 -182 -4z"/>
<path d="M355 817 c-25 -25 -35 -45 -36 -68 -1 -19 -3 -47 -5 -62 -4 -37 32
-93 71 -109 17 -8 64 -12 112 -12 72 2 85 5 106 26 62 62 64 218 2 246 -11 5
-64 10 -118 11 -98 2 -98 2 -132 -32z m103 -44 c3 -31 1 -33 -27 -33 -62 0
-80 25 -38 55 35 25 61 16 65 -22z m115 20 c18 -6 20 -12 11 -37 -4 -10 -18
-16 -40 -16 -31 0 -34 3 -34 28 0 34 9 45 29 36 9 -3 24 -9 34 -11z m-113
-122 c0 -11 -7 -27 -16 -35 -18 -19 -16 -19 -48 -6 -19 7 -26 17 -26 35 0 23
4 25 45 25 38 0 45 -3 45 -19z m130 0 c0 -23 -16 -37 -53 -46 -26 -7 -27 -5
-27 29 0 35 1 36 40 36 32 0 40 -4 40 -19z"/>
<path d="M280 520 c-6 -4 -5 -13 3 -23 13 -18 13 -18 226 -18 79 0 147 -2 151
-4 3 -2 12 0 20 5 11 7 12 14 5 25 -8 13 -42 16 -203 18 -106 2 -197 0 -202
-3z"/>
<path d="M416 440 c-52 -10 -83 -49 -91 -115 -9 -66 13 -121 52 -136 60 -24
145 -36 178 -27 66 21 98 118 68 208 -21 64 -43 80 -112 79 -31 -1 -74 -5 -95
-9z m34 -80 c0 -28 -2 -30 -40 -30 -24 0 -40 5 -40 12 0 20 32 48 57 48 19 0
23 -5 23 -30z m120 4 c14 -35 14 -34 -25 -34 -24 0 -35 5 -35 14 0 8 -3 21 -6
30 -5 13 1 16 25 16 25 0 34 -6 41 -26z m10 -101 c0 -16 -40 -53 -57 -53 -8 0
-13 14 -13 39 0 36 3 40 28 43 27 3 42 -7 42 -29z m-130 -13 c0 -35 -3 -40
-23 -40 -19 0 -67 32 -67 45 0 23 17 35 51 35 39 0 39 0 39 -40z"/>
<path d="M403 111 c-61 -3 -115 -9 -119 -14 -20 -19 25 -26 198 -29 155 -2
189 -1 193 11 3 8 2 18 -2 21 -13 12 -148 17 -270 11z"/>
</g>
</svg>
